# xmcd CD database file
#
# Track frame offsets:
#	177
#	56305
#	126812
#	173005
#	222542
#
# Disc length: 4345 seconds
#
# Revision: 8
# Processed by: cddbd v1.5.2PL0 Copyright (c) Steve Scherf et al.
# Submitted via: CDex 1.51
#
DISCID=4110f705
DTITLE=Fela Anikulapo Kuti - The Two Sides Of Fela CD1: The Jazz Side Of Fela
DYEAR=1997
DGENRE=Jazz
TTITLE0=J.J.D.
TTITLE1=Roforofo Fight
TTITLE2=Sorrow Tears and Blood
TTITLE3=Water No Get Enemy
TTITLE4=Just Like That
EXTD=YEAR: 1997
EXTT0=
EXTT1=
EXTT2=
EXTT3=
EXTT4=
PLAYORDER=
